# xmcd
#
# Track frame offsets: 
#        150
#        18675
#        37450
#        56525
#        66325
#        84612
#        108412
#        125862
#        140400
#        164112
#        180287
#        199012
#        221550
#        242355
#
# Disc length: 3451 seconds
#
# Revision: 1
# Processed by: cddbd v1.5.2PL0 Copyright (c) Steve Scherf et al.
# Submitted via: ExactAudioCopy v0.95a5
#
DISCID=d50d790e
DTITLE=Natalie Cole - Ask A Woman Who Knows
DYEAR=2002
DGENRE=R&B
TTITLE0=I Haven't Got Anything Better To Do
TTITLE1=Tell Me All About It
TTITLE2=Ask A Woman Who Knows
TTITLE3=It's Crazy
TTITLE4=You're Mine You
TTITLE5=So Many Stars
TTITLE6=I Told You So
TTITLE7=Soon
TTITLE8=I'm Glad There Is You
TTITLE9=Better Than Anything (with Diana Krall)
TTITLE10=The Music That Makes Me Dance
TTITLE11=Calling You
TTITLE12=My Baby Just Cares For Me
TTITLE13=I've Got Just About Everything
EXTD=YEAR: 2002
EXTT0=
EXTT1=
EXTT2=
EXTT3=
EXTT4=
EXTT5=
EXTT6=
EXTT7=
EXTT8=
EXTT9=
EXTT10=
EXTT11=
EXTT12=
EXTT13=
PLAYORDER=
